<svg width="33" height="36" viewBox="0 0 33 36" fill="none" xmlns="http://www.w3.org/2000/svg">
<g opacity="0.2">
<path fill-rule="evenodd" clip-rule="evenodd" d="M19.2572 19.356H17.8863V17.8671C17.8863 17.0452 17.2735 16.3782 16.5154 16.3782C15.7573 16.3782 15.1445 17.0452 15.1445 17.8671V19.356H13.7736C13.0155 19.356 12.4027 20.023 12.4027 20.8449C12.4027 21.6668 13.0155 22.3338 13.7736 22.3338H15.1445V23.8228C15.1445 24.6446 15.7573 25.3117 16.5154 25.3117C17.2735 25.3117 17.8863 24.6446 17.8863 23.8228V22.3338H19.2572C20.0153 22.3338 20.6281 21.6668 20.6281 20.8449C20.6281 20.023 20.0153 19.356 19.2572 19.356ZM23.979 29.7784H9.05123C8.63174 29.7784 8.29038 29.4449 8.29038 29.034V6.70018C8.29038 6.28923 8.63174 5.95572 9.05123 5.95572H16.5158V10.6458C16.5158 12.9864 18.1842 14.8892 20.2364 14.8892H24.7412V29.034C24.7412 29.4449 24.3998 29.7784 23.979 29.7784ZM19.2576 7.41188L23.0166 11.9114H20.2364C19.6963 11.9114 19.2576 11.3441 19.2576 10.6458V7.41188ZM27.1266 12.3998L19.6634 3.46624C19.4029 3.15506 19.0355 2.97787 18.6475 2.97787H9.05123C7.11964 2.97787 5.54858 4.64844 5.54858 6.70018V29.034C5.54858 31.0857 7.11964 32.7563 9.05123 32.7563H23.979C25.9106 32.7563 27.483 31.0857 27.483 29.034V13.4003C27.483 13.0296 27.3555 12.6737 27.1266 12.3998Z" fill="#4339F2"/>
</g>
</svg>
