<svg width="36" height="36" viewBox="0 0 36 36" fill="none" xmlns="http://www.w3.org/2000/svg">
<path fill-rule="evenodd" clip-rule="evenodd" d="M23.5965 29.9304H27.9457L27.9602 17.3879L17.7753 6.61835L7.605 17.3265L7.59627 29.9304H11.96V19.4484C11.96 18.6203 12.6102 17.9509 13.4145 17.9509H22.142C22.9449 17.9509 23.5965 18.6203 23.5965 19.4484V29.9304ZM20.6874 29.9304H14.8691V20.9458H20.6874V29.9304ZM30.0315 15.2331L18.8183 3.42732C18.2699 2.85081 17.2866 2.85081 16.7382 3.42732L5.52351 15.2346C4.99259 15.7961 4.68713 16.5808 4.68713 17.3879V29.9304C4.68713 31.5821 5.91915 32.9253 7.43336 32.9253H13.4145H22.142H28.1217C29.6359 32.9253 30.8694 31.5821 30.8694 29.9304V17.3879C30.8694 16.5808 30.5639 15.7961 30.0315 15.2331Z" fill="#4339F2"/>
</svg>
