<svg width="33" height="34" viewBox="0 0 33 34" fill="none" xmlns="http://www.w3.org/2000/svg">
<path fill-rule="evenodd" clip-rule="evenodd" d="M10.9672 7.05651C10.9672 7.83272 10.3503 8.46781 9.59628 8.46781H8.22538V25.4034H9.59628C10.3503 25.4034 10.9672 26.0385 10.9672 26.8147C10.9672 27.591 10.3503 28.2261 9.59628 28.2261H6.85448C6.10049 28.2261 5.48358 27.591 5.48358 26.8147V7.05651C5.48358 6.28029 6.10049 5.6452 6.85448 5.6452H9.59628C10.3503 5.6452 10.9672 6.28029 10.9672 7.05651ZM24.6815 10.4786L28.5392 16.1238C28.882 16.6234 28.871 17.2938 28.5146 17.7821L24.4019 23.4273C24.1332 23.7971 23.7205 23.9919 23.3038 23.9919C23.0186 23.9919 22.7294 23.9001 22.4826 23.7096C21.8767 23.2425 21.7547 22.3576 22.2084 21.7352L24.6774 18.3466H24.676H13.7088C12.9521 18.3466 12.3379 17.7158 12.3379 16.9353C12.3379 16.1549 12.9521 15.524 13.7088 15.524H24.676C24.6987 15.524 24.7197 15.5305 24.7409 15.537C24.7581 15.5422 24.7755 15.5475 24.7939 15.5494L22.4387 12.1016C22.0028 11.4651 22.1522 10.5845 22.7719 10.1357C23.3901 9.68548 24.2456 9.84072 24.6815 10.4786Z" fill="#FF3A29"/>
</svg>
