<svg width="34" height="33" viewBox="0 0 34 33" fill="none" xmlns="http://www.w3.org/2000/svg">
<g opacity="0.2">
<path fill-rule="evenodd" clip-rule="evenodd" d="M22.107 15.0196H17.9943V10.9234C17.9943 10.1683 17.3802 9.55795 16.6234 9.55795C15.8667 9.55795 15.2525 10.1683 15.2525 10.9234V16.385C15.2525 17.1401 15.8667 17.7504 16.6234 17.7504H22.107C22.8651 17.7504 23.4779 17.1401 23.4779 16.385C23.4779 15.63 22.8651 15.0196 22.107 15.0196ZM16.6234 27.3084C10.5764 27.3084 5.65623 22.4079 5.65623 16.385C5.65623 10.3622 10.5764 5.4617 16.6234 5.4617C22.6705 5.4617 27.5906 10.3622 27.5906 16.385C27.5906 22.4079 22.6705 27.3084 16.6234 27.3084ZM16.6234 2.73087C9.06429 2.73087 2.91443 8.85612 2.91443 16.385C2.91443 23.9139 9.06429 30.0392 16.6234 30.0392C24.1826 30.0392 30.3324 23.9139 30.3324 16.385C30.3324 8.85612 24.1826 2.73087 16.6234 2.73087Z" fill="#4339F2"/>
</g>
</svg>
