<svg width="34" height="34" viewBox="0 0 34 34" fill="none" xmlns="http://www.w3.org/2000/svg">
<g opacity="1">
<path fill-rule="evenodd" clip-rule="evenodd" d="M16.7739 19.7587H12.6612C11.9045 19.7587 11.2903 19.1264 11.2903 18.3474C11.2903 17.5683 11.9045 16.9361 12.6612 16.9361H16.7739C17.5307 16.9361 18.1448 17.5683 18.1448 18.3474C18.1448 19.1264 17.5307 19.7587 16.7739 19.7587ZM11.2903 23.9926C11.2903 23.2135 11.9045 22.5813 12.6612 22.5813H20.8866C21.6447 22.5813 22.2575 23.2135 22.2575 23.9926C22.2575 24.7716 21.6447 25.4039 20.8866 25.4039H12.6612C11.9045 25.4039 11.2903 24.7716 11.2903 23.9926ZM24.2375 28.2265H9.30978C8.89028 28.2265 8.54893 27.9103 8.54893 27.5208V6.35134C8.54893 5.96182 8.89028 5.64569 9.30978 5.64569H16.7743V10.0913C16.7743 12.3098 18.4427 14.1135 20.495 14.1135H24.9997V27.5208C24.9997 27.9103 24.6584 28.2265 24.2375 28.2265ZM19.5161 7.02594L23.2751 11.2909H20.495C19.9548 11.2909 19.5161 10.7532 19.5161 10.0913V7.02594ZM27.3851 11.7538L19.9219 3.286C19.6615 2.99103 19.2941 2.82309 18.9061 2.82309H9.30978C7.37818 2.82309 5.80713 4.40657 5.80713 6.35134V27.5208C5.80713 29.4656 7.37818 31.0491 9.30978 31.0491H24.2375C26.1691 31.0491 27.7415 29.4656 27.7415 27.5208V12.7022C27.7415 12.3508 27.614 12.0135 27.3851 11.7538Z" fill="#4339F2"/>
</g>
</svg>
